<?xml version="1.0" encoding="UTF-8" standalone="no"?>
<!-- Created with Inkscape (http://www.inkscape.org/) -->

<svg
   xmlns:dc="http://purl.org/dc/elements/1.1/"
   xmlns:cc="http://creativecommons.org/ns#"
   xmlns:rdf="http://www.w3.org/1999/02/22-rdf-syntax-ns#"
   xmlns:svg="http://www.w3.org/2000/svg"
   xmlns="http://www.w3.org/2000/svg"
   xmlns:sodipodi="http://sodipodi.sourceforge.net/DTD/sodipodi-0.dtd"
   xmlns:inkscape="http://www.inkscape.org/namespaces/inkscape"
   width="300"
   height="300"
   id="svg2"
   version="1.1"
   inkscape:version="0.48.4 r9939"
   sodipodi:docname="AppTitleIcon.svg">
  <defs
     id="defs4" />
  <sodipodi:namedview
     id="base"
     pagecolor="#ffffff"
     bordercolor="#666666"
     borderopacity="1.0"
     inkscape:pageopacity="0.0"
     inkscape:pageshadow="2"
     inkscape:zoom="1.4681105"
     inkscape:cx="95.432614"
     inkscape:cy="117.3601"
     inkscape:document-units="px"
     inkscape:current-layer="layer1"
     showgrid="false"
     showguides="true"
     inkscape:guide-bbox="true"
     inkscape:window-width="1536"
     inkscape:window-height="803"
     inkscape:window-x="-8"
     inkscape:window-y="-8"
     inkscape:window-maximized="1"
     inkscape:snap-page="true" />
  <metadata
     id="metadata7">
    <rdf:RDF>
      <cc:Work
         rdf:about="">
        <dc:format>image/svg+xml</dc:format>
        <dc:type
           rdf:resource="http://purl.org/dc/dcmitype/StillImage" />
        <dc:title></dc:title>
      </cc:Work>
    </rdf:RDF>
  </metadata>
  <g
     inkscape:groupmode="layer"
     id="layer2"
     inkscape:label="Background"
     style="display:none"
     sodipodi:insensitive="true"
     transform="translate(0,141)">
    <rect
       style="fill:#ffff00"
       id="rect2996"
       width="158.97276"
       height="158.97276"
       x="6.2806407e-008"
       y="0.15351209" />
  </g>
  <g
     inkscape:groupmode="layer"
     id="layer3"
     inkscape:label="Drawing"
     style="display:none"
     sodipodi:insensitive="true"
     transform="translate(0,141)" />
  <g
     inkscape:label="Pencil"
     inkscape:groupmode="layer"
     id="layer1"
     transform="translate(0,-752.36218)"
     style="display:inline"
     sodipodi:insensitive="true">
    <rect
       style="fill:none;stroke:none"
       id="rect3836"
       width="299.48489"
       height="299.48489"
       x="0.4375"
       y="752.43982"
       inkscape:export-filename="C:\Users\Marcus\Documents\Visual Studio 2013\Projects\EverydayTemplatesWP8\Images\AppTitleIcon.png"
       inkscape:export-xdpi="89.854279"
       inkscape:export-ydpi="89.854279" />
    <path
       id="path3007"
       style="fill:none;stroke:#ffffff;stroke-width:1.88355279px;stroke-linecap:butt;stroke-linejoin:miter;stroke-opacity:1"
       d="m 128.8681,782.1015 30.56173,14.03222 0,0 m 7.18779,-16.37326 -11.96403,-12.97908 -18.76937,0.33654 -7.03183,15.05581 -88.587122,199.33158 c -3.540702,34.71089 -0.07259,0.0527 -3.502108,34.76639 31.376572,-17.86787 0.102559,-0.2525 31.349627,-17.77943 L 159.53036,796.15331 z m -128.390147,219.31069 8.626149,-4.32575 0.336349,10.0905 10.42681,-5.46572 -0.420436,5.54982"
       inkscape:connector-curvature="0"
       inkscape:export-filename="C:\Users\Marcus\Documents\Visual Studio 2013\Projects\EverydayTemplatesWP8\Images\AppTitleIcon.png"
       inkscape:export-xdpi="89.854279"
       inkscape:export-ydpi="89.854279" />
    <path
       style="fill:#ffffff;stroke:#ffffff;stroke-width:0.23783445;stroke-opacity:1"
       d="m 113.18823,857.92249 c -5.67334,0.0198 -11.34668,0.0397 -17.02002,0.0595 -1.266595,1.58927 -1.782245,3.81817 -2.756429,5.65651 -17.485943,39.38754 -35.029348,78.75487 -52.488055,118.15119 -0.441586,5.01196 -1.160617,10.11327 -1.367549,15.08018 0.593775,0.86913 1.750666,-0.45085 2.511678,-0.56974 1.80412,-0.87099 3.608489,-1.78973 5.433481,-2.66332 0.16255,3.23099 0.01412,6.55869 0.505397,9.72149 1.712552,-0.3119 3.265867,-1.5944 4.904492,-2.3001 1.817361,-0.9468 3.610464,-1.94035 5.456172,-2.8282 -0.01507,1.49644 -0.364221,3.0128 -0.208106,4.4965 0.901711,0.5479 1.839342,-0.765 2.706134,-0.9759 2.250374,-1.2965 4.605917,-2.47361 6.770082,-3.88479 20.975217,-46.42915 42.016773,-92.83063 62.907213,-139.29666 -0.19147,-1.09446 -1.84443,-0.35294 -2.63095,-0.60811 -4.90749,-0.0706 -9.81571,-0.0437 -14.72354,-0.0385 z"
       id="path3786"
       inkscape:connector-curvature="0"
       inkscape:export-filename="C:\Users\Marcus\Documents\Visual Studio 2013\Projects\EverydayTemplatesWP8\Images\AppTitleIcon.png"
       inkscape:export-xdpi="89.854279"
       inkscape:export-ydpi="89.854279" />
    <path
       style="fill:#ffffff;stroke:#ffffff;stroke-width:0.23783445;stroke-opacity:1"
       d="m 129.51706,783.2722 c -1.09433,0.3271 -1.08514,2.15463 -1.75403,3.03239 -10.56961,23.76385 -21.12391,47.53637 -31.661712,71.31318 0.456326,1.18128 2.578349,0.2137 3.671569,0.52624 10.264053,-0.005 20.528083,-0.009 30.792133,-0.0134 1.30578,-1.65843 1.86876,-3.95326 2.8856,-5.85925 8.28033,-18.4246 16.69835,-36.80702 24.82955,-55.28651 -0.36524,-1.08372 -1.99995,-1.10453 -2.82429,-1.77633 -8.60395,-4.04089 -17.24182,-8.22046 -25.93882,-11.93631 z"
       id="path3788"
       inkscape:connector-curvature="0"
       inkscape:export-filename="C:\Users\Marcus\Documents\Visual Studio 2013\Projects\EverydayTemplatesWP8\Images\AppTitleIcon.png"
       inkscape:export-xdpi="89.854279"
       inkscape:export-ydpi="89.854279" />
    <path
       style="fill:#ffaaaa"
       d="m 145.76242,767.58305 c -3.01728,0.1043 -6.06927,-0.009 -9.06565,0.2943 -1.10709,0.97818 -1.44831,2.60837 -2.16709,3.87909 -1.46203,3.24662 -2.9655,6.49025 -4.36018,9.74829 0.0825,0.85591 1.33083,0.86087 1.9227,1.31615 8.87584,4.15885 17.78943,8.23862 26.71425,12.29021 0.82933,-0.0622 0.81689,-1.26283 1.23992,-1.83159 1.89637,-4.36177 3.84179,-8.72352 5.56588,-13.14644 -0.33525,-1.04132 -1.40784,-1.74768 -2.04255,-2.63753 -2.99297,-3.33741 -6.056,-6.61638 -9.09375,-9.91774 -2.11969,-0.25796 -4.34491,0.0216 -6.50555,-0.0277 -0.73599,0.011 -1.47199,0.022 -2.20798,0.0331 z"
       id="path3013"
       inkscape:connector-curvature="0"
       inkscape:export-filename="C:\Users\Marcus\Documents\Visual Studio 2013\Projects\EverydayTemplatesWP8\Images\AppTitleIcon.png"
       inkscape:export-xdpi="89.854279"
       inkscape:export-ydpi="89.854279" />
    <path
       style="font-size:medium;font-style:normal;font-variant:normal;font-weight:normal;font-stretch:normal;text-indent:0;text-align:start;text-decoration:none;line-height:normal;letter-spacing:normal;word-spacing:normal;text-transform:none;direction:ltr;block-progression:tb;writing-mode:lr-tb;text-anchor:start;baseline-shift:baseline;color:#000000;fill:#ffffff;fill-opacity:1;stroke:none;stroke-width:1px;marker:none;visibility:visible;display:inline;overflow:visible;enable-background:accumulate;font-family:Sans;-inkscape-font-specification:Sans"
       d="m 300.39328,925.43234 -1.00064,0.11772 c 0,0 -19.92307,1.58682 -43.26285,4.5323 -23.33978,2.94548 -50.05611,7.18075 -63.98194,12.65512 -10.235,4.02348 -18.6444,13.75496 -27.84126,23.95648 -9.19686,10.20151 -19.14014,20.89764 -32.07925,27.19379 -14.27735,6.94725 -38.356595,12.79405 -58.80217,16.83425 -20.41422,4.0338 -37.207506,6.2911 -37.259029,6.298 -7.9e-5,0 -0.05886,0 -0.05886,0 l 0.235444,1.8836 c 0,0 0.05864,0 0.05886,0 0,0 0.05879,0 0.05886,0 0.178278,-0.019 17.444648,-1.346 38.436248,-4.4145 21.099984,-3.0843 45.818737,-7.8614 60.509137,-15.00965 13.35312,-6.4975 23.40102,-17.45074 32.609,-27.66468 9.20798,-10.21375 17.60025,-19.65532 27.1938,-23.42663 13.46977,-5.29508 39.61819,-9.54232 62.33382,-12.36081 22.71562,-2.8185 42.02677,-4.29686 42.02677,-4.29686 l 0.88291,-0.0588 0,-0.88291 -0.0588,-4.35572 0,-1.00063 z m -1.88355,2.119 0.0588,2.47216 c -0.78877,0.0607 -18.97467,1.41384 -41.26158,4.17913 -22.76533,2.82467 -48.88277,6.94685 -62.80471,12.41968 -10.235,4.02348 -18.6444,13.69601 -27.84126,23.89752 -9.19687,10.20151 -19.14015,20.9566 -32.07926,27.25275 -14.23778,6.92792 -38.95049,11.81802 -59.979384,14.89172 -2.079817,0.304 -3.360522,0.3774 -5.356353,0.6476 2.355985,-0.4385 2.046246,-0.2741 4.532299,-0.7653 20.506082,-4.0521 44.622208,-9.8229 59.273048,-16.95197 13.35313,-6.49751 23.40103,-17.45074 32.60901,-27.66469 9.20798,-10.21375 17.60026,-19.65532 27.19379,-23.42662 13.46589,-5.29356 40.21931,-9.59799 63.51105,-12.5374 22.75083,-2.87116 41.25157,-4.34235 42.14449,-4.41458 z"
       id="path3797-1"
       inkscape:connector-curvature="0"
       inkscape:export-xdpi="89.854279"
       inkscape:export-ydpi="89.854279"
       inkscape:export-filename="C:\Users\Marcus\Documents\Visual Studio 2013\Projects\EverydayTemplatesWP8\Images\AppTitleIcon.png" />
  </g>
</svg>
