<?xml version="1.0" encoding="UTF-8" standalone="no"?>
<!-- Created with Inkscape (http://www.inkscape.org/) -->

<svg
   xmlns:dc="http://purl.org/dc/elements/1.1/"
   xmlns:cc="http://creativecommons.org/ns#"
   xmlns:rdf="http://www.w3.org/1999/02/22-rdf-syntax-ns#"
   xmlns:svg="http://www.w3.org/2000/svg"
   xmlns="http://www.w3.org/2000/svg"
   xmlns:sodipodi="http://sodipodi.sourceforge.net/DTD/sodipodi-0.dtd"
   xmlns:inkscape="http://www.inkscape.org/namespaces/inkscape"
   width="71"
   height="110"
   id="svg2"
   version="1.1"
   inkscape:version="0.48.4 r9939"
   sodipodi:docname="TileISFileIconicSmall.svg">
  <defs
     id="defs4" />
  <sodipodi:namedview
     id="base"
     pagecolor="#ffffff"
     bordercolor="#666666"
     borderopacity="1.0"
     inkscape:pageopacity="0.0"
     inkscape:pageshadow="2"
     inkscape:zoom="2.8"
     inkscape:cx="66.248285"
     inkscape:cy="57.204464"
     inkscape:document-units="px"
     inkscape:current-layer="layer4"
     showgrid="false"
     showguides="true"
     inkscape:guide-bbox="true"
     inkscape:window-width="1536"
     inkscape:window-height="803"
     inkscape:window-x="-8"
     inkscape:window-y="-8"
     inkscape:window-maximized="1"
     inkscape:snap-page="true" />
  <metadata
     id="metadata7">
    <rdf:RDF>
      <cc:Work
         rdf:about="">
        <dc:format>image/svg+xml</dc:format>
        <dc:type
           rdf:resource="http://purl.org/dc/dcmitype/StillImage" />
        <dc:title></dc:title>
      </cc:Work>
    </rdf:RDF>
  </metadata>
  <g
     inkscape:groupmode="layer"
     id="layer4"
     inkscape:label="ClearSquare"
     transform="translate(0,-49)">
    <rect
       style="fill:none;stroke:none;stroke-width:0.55225521000000000;stroke-opacity:1"
       id="rect3014"
       width="70.447746"
       height="109.44775"
       x="0.13327049"
       y="49.418983"
       inkscape:export-filename="C:\Users\Marcus\Documents\Visual Studio 2013\Projects\EverydayTemplatesWP8\Images\IconicSmall.png"
       inkscape:export-xdpi="90.741142"
       inkscape:export-ydpi="90.741142" />
  </g>
  <g
     inkscape:groupmode="layer"
     id="layer2"
     inkscape:label="Background"
     style="display:none"
     sodipodi:insensitive="true"
     transform="translate(0,-49)">
    <rect
       style="fill:#ffff00"
       id="rect2996"
       width="158.97276"
       height="158.97276"
       x="6.2806407e-008"
       y="0.15351209" />
  </g>
  <g
     inkscape:groupmode="layer"
     id="layer3"
     inkscape:label="Drawing"
     style="display:none"
     sodipodi:insensitive="true"
     transform="translate(0,-49)" />
  <g
     inkscape:label="Pencil"
     inkscape:groupmode="layer"
     id="layer1"
     transform="translate(0,-942.36218)"
     style="display:inline">
    <path
       id="path3007"
       style="fill:none;stroke:#ffffff;stroke-width:0.44642857px;stroke-linecap:butt;stroke-linejoin:miter;stroke-opacity:1"
       d="m 30.877365,972.61563 7.24356,3.32584 0,0 m 1.703608,-3.88069 -2.835644,-3.07623 -4.448606,0.0798 -1.666643,3.56844 -20.9963972,47.24441 c -0.8391964,8.227 -0.017205,0.013 -0.8300491,8.2401 7.4366903,-4.2349 0.024308,-0.06 7.4303043,-4.214 l 21.667255,-47.95716 z m -30.4302763,51.97972 2.0445193,-1.0252 0.07972,2.3916 2.471301,-1.2955 -0.09965,1.3154"
       inkscape:connector-curvature="0"
       inkscape:export-filename="C:\Users\Marcus\Documents\Visual Studio 2013\Projects\EverydayTemplatesWP8\Images\IconicSmall.png"
       inkscape:export-xdpi="90.741142"
       inkscape:export-ydpi="90.741142" />
    <path
       style="fill:#ffffff;stroke:#ffffff;stroke-width:0.05637012;stroke-opacity:1"
       d="m 27.161015,990.58627 c -1.344662,0 -2.689324,0.01 -4.033986,0.014 -0.300201,0.3767 -0.422418,0.905 -0.653313,1.3407 -4.144415,9.33543 -8.302449,18.66603 -12.440409,28.00353 -0.1046624,1.1879 -0.2750829,2.397 -0.3241289,3.5742 0.140733,0.206 0.4149329,-0.1069 0.5953029,-0.135 0.427602,-0.2065 0.855263,-0.4242 1.287812,-0.6313 0.03853,0.7658 0.0033,1.5545 0.119786,2.3041 0.405899,-0.074 0.774057,-0.3778 1.162434,-0.5451 0.43074,-0.2244 0.855731,-0.4599 1.29319,-0.6703 -0.0036,0.3546 -0.08633,0.714 -0.04932,1.0657 0.213718,0.1299 0.43595,-0.1813 0.641392,-0.2313 0.53337,-0.3073 1.091667,-0.5863 1.604605,-0.9208 4.971422,-11.0043 9.958566,-22.0021 14.909897,-33.01523 -0.04538,-0.2594 -0.437155,-0.084 -0.623572,-0.1442 -1.163146,-0.017 -2.326462,-0.01 -3.489686,-0.01 z"
       id="path3786"
       inkscape:connector-curvature="0"
       inkscape:export-filename="C:\Users\Marcus\Documents\Visual Studio 2013\Projects\EverydayTemplatesWP8\Images\IconicSmall.png"
       inkscape:export-xdpi="90.741142"
       inkscape:export-ydpi="90.741142" />
    <path
       style="fill:#ffffff;stroke:#ffffff;stroke-width:0.05637012;stroke-opacity:1"
       d="m 31.031177,972.89311 c -0.259371,0.0775 -0.257194,0.51068 -0.41573,0.71872 -2.505147,5.63236 -5.006666,11.26674 -7.504273,16.90224 0.108156,0.28 0.611106,0.051 0.870214,0.1247 2.432723,0 4.865446,0 7.298169,0 0.309487,-0.393 0.442925,-0.9369 0.68393,-1.3887 1.962553,-4.3669 3.957745,-8.72376 5.884951,-13.10366 -0.08657,-0.25686 -0.474013,-0.26179 -0.669395,-0.42102 -2.039256,-0.95774 -4.086555,-1.94836 -6.147866,-2.82907 z"
       id="path3788"
       inkscape:connector-curvature="0"
       inkscape:export-filename="C:\Users\Marcus\Documents\Visual Studio 2013\Projects\EverydayTemplatesWP8\Images\IconicSmall.png"
       inkscape:export-xdpi="90.741142"
       inkscape:export-ydpi="90.741142" />
    <path
       style="fill:#ffaaaa"
       d="m 34.881556,969.17456 c -0.715139,0.0247 -1.438504,-0.002 -2.148687,0.0697 -0.262395,0.23184 -0.343268,0.61822 -0.513631,0.9194 -0.34652,0.7695 -0.702866,1.53828 -1.033423,2.31048 0.01954,0.20287 0.315423,0.20404 0.455706,0.31195 2.103698,0.9857 4.216345,1.95267 6.331652,2.91295 0.196565,-0.0147 0.193616,-0.29931 0.29388,-0.43411 0.449466,-1.0338 0.91056,-2.0676 1.319192,-3.11589 -0.07946,-0.24681 -0.333677,-0.41423 -0.48411,-0.62513 -0.709377,-0.79102 -1.43536,-1.56818 -2.155349,-2.35065 -0.502397,-0.0611 -1.029805,0.005 -1.541907,-0.007 -0.174441,0.003 -0.348882,0.005 -0.523323,0.008 z"
       id="path3013"
       inkscape:connector-curvature="0"
       inkscape:export-filename="C:\Users\Marcus\Documents\Visual Studio 2013\Projects\EverydayTemplatesWP8\Images\IconicSmall.png"
       inkscape:export-xdpi="90.741142"
       inkscape:export-ydpi="90.741142" />
    <path
       style="font-size:medium;font-style:normal;font-variant:normal;font-weight:normal;font-stretch:normal;text-indent:0;text-align:start;text-decoration:none;line-height:normal;letter-spacing:normal;word-spacing:normal;text-transform:none;direction:ltr;block-progression:tb;writing-mode:lr-tb;text-anchor:start;baseline-shift:baseline;color:#000000;fill:#ffffff;fill-opacity:1;stroke:none;stroke-width:1px;marker:none;visibility:visible;display:inline;overflow:visible;enable-background:accumulate;font-family:Sans;-inkscape-font-specification:Sans"
       d="m 71.53125,1006.5871 -0.237165,0.028 c 0,0 -4.722049,0.3761 -10.253906,1.0742 -5.531857,0.6981 -11.864005,1.702 -15.164621,2.9995 -2.425841,0.9536 -4.418986,3.2601 -6.598772,5.678 -2.179786,2.4179 -4.536484,4.953 -7.603237,6.4453 -3.383931,1.6466 -9.091052,3.0324 -13.936942,3.9899 -4.838458,0.9561 -8.8187034,1.4911 -8.8309151,1.4928 -1.87e-5,0 -0.013951,0 -0.013951,0 l 0.055803,0.4464 c 0,0 0.013897,0 0.013951,0 0,0 0.013933,0 0.013951,0 0.042255,0 4.1346271,-0.319 9.1099331,-1.0463 5.000993,-0.731 10.859687,-1.8633 14.341518,-3.5575 3.164879,-1.54 5.546374,-4.1361 7.728794,-6.5569 2.182421,-2.4208 4.171509,-4.6586 6.445313,-5.5525 3.192527,-1.255 9.390071,-2.2616 14.773995,-2.9296 5.383924,-0.6681 9.960938,-1.0185 9.960938,-1.0185 l 0.209263,-0.014 0,-0.2092 -0.01393,-1.0324 0,-0.2372 z m -0.446428,0.5022 0.01393,0.586 c -0.186951,0.014 -4.497263,0.3351 -9.779576,0.9905 -5.395705,0.6695 -11.585906,1.6465 -14.885602,2.9436 -2.425841,0.9536 -4.418986,3.2462 -6.598773,5.6641 -2.179786,2.4179 -4.536484,4.967 -7.603236,6.4593 -3.374556,1.642 -9.231815,2.801 -14.21596,3.5295 -0.492946,0.072 -0.796491,0.09 -1.269531,0.1535 0.558402,-0.1039 0.484989,-0.065 1.074218,-0.1814 4.860231,-0.9604 10.576095,-2.3282 14.04855,-4.0179 3.164879,-1.54 5.546373,-4.136 7.728794,-6.5569 2.182421,-2.4208 4.171508,-4.6586 6.445313,-5.5524 3.191607,-1.2547 9.532544,-2.2749 15.053013,-2.9716 5.392268,-0.6805 9.777205,-1.0292 9.988839,-1.0463 z"
       id="path3797-1"
       inkscape:connector-curvature="0"
       inkscape:export-filename="C:\Users\Marcus\Documents\Visual Studio 2013\Projects\EverydayTemplatesWP8\Images\IconicSmall.png"
       inkscape:export-xdpi="90.741142"
       inkscape:export-ydpi="90.741142" />
  </g>
</svg>
