<?xml version="1.0" encoding="UTF-8" standalone="no"?>
<!-- Created with Inkscape (http://www.inkscape.org/) -->

<svg
   xmlns:dc="http://purl.org/dc/elements/1.1/"
   xmlns:cc="http://creativecommons.org/ns#"
   xmlns:rdf="http://www.w3.org/1999/02/22-rdf-syntax-ns#"
   xmlns:svg="http://www.w3.org/2000/svg"
   xmlns="http://www.w3.org/2000/svg"
   xmlns:sodipodi="http://sodipodi.sourceforge.net/DTD/sodipodi-0.dtd"
   xmlns:inkscape="http://www.inkscape.org/namespaces/inkscape"
   width="134"
   height="202"
   id="svg2"
   version="1.1"
   inkscape:version="0.48.4 r9939"
   sodipodi:docname="TileISFileIconicMedium.svg">
  <defs
     id="defs4" />
  <sodipodi:namedview
     id="base"
     pagecolor="#ffffff"
     bordercolor="#666666"
     borderopacity="1.0"
     inkscape:pageopacity="0.0"
     inkscape:pageshadow="2"
     inkscape:zoom="1.979899"
     inkscape:cx="232.28371"
     inkscape:cy="76.493622"
     inkscape:document-units="px"
     inkscape:current-layer="layer4"
     showgrid="false"
     showguides="true"
     inkscape:guide-bbox="true"
     inkscape:window-width="1536"
     inkscape:window-height="803"
     inkscape:window-x="-8"
     inkscape:window-y="-8"
     inkscape:window-maximized="1"
     inkscape:snap-page="true" />
  <metadata
     id="metadata7">
    <rdf:RDF>
      <cc:Work
         rdf:about="">
        <dc:format>image/svg+xml</dc:format>
        <dc:type
           rdf:resource="http://purl.org/dc/dcmitype/StillImage" />
        <dc:title></dc:title>
      </cc:Work>
    </rdf:RDF>
  </metadata>
  <g
     inkscape:groupmode="layer"
     id="layer4"
     inkscape:label="ClearSquare"
     transform="translate(0,43)">
    <rect
       style="fill:none;stroke:none;stroke-width:1.02813554000000010;stroke-opacity:1"
       id="rect3014"
       width="132.97186"
       height="200.97186"
       x="0.5540207"
       y="-42.517464"
       inkscape:export-filename="C:\Users\Marcus\Documents\Visual Studio 2013\Projects\EverydayTemplatesWP8\Images\IconicMediumLarge.png"
       inkscape:export-xdpi="90.460426"
       inkscape:export-ydpi="90.460426" />
  </g>
  <g
     inkscape:groupmode="layer"
     id="layer2"
     inkscape:label="Background"
     style="display:none"
     sodipodi:insensitive="true"
     transform="translate(0,43)">
    <rect
       style="fill:#ffff00"
       id="rect2996"
       width="158.97276"
       height="158.97276"
       x="6.2806407e-008"
       y="0.15351209" />
  </g>
  <g
     inkscape:groupmode="layer"
     id="layer3"
     inkscape:label="Drawing"
     style="display:none"
     sodipodi:insensitive="true"
     transform="translate(0,43)" />
  <g
     inkscape:label="Pencil"
     inkscape:groupmode="layer"
     id="layer1"
     transform="translate(0,-850.36218)"
     style="display:inline">
    <path
       id="path3007"
       style="fill:none;stroke:#ffffff;stroke-width:0.82590008px;stroke-linecap:butt;stroke-linejoin:miter;stroke-opacity:1"
       d="m 57.253504,901.00752 13.676842,6.02864 0,0 m 3.216646,-7.03441 -5.354087,-5.57615 -8.399579,0.14464 -3.146854,6.46839 -39.64409,85.63807 c -1.584518,14.9129 -0.03248,0.0238 -1.567248,14.9367 14.041496,-7.67655 0.0459,-0.1081 14.029439,-7.63865 l 40.910762,-86.93013 z m -57.456555,94.22165 3.860333,-1.85829 0.15052,4.33512 4.666157,-2.34828 -0.188151,2.38434"
       inkscape:connector-curvature="0"
       inkscape:export-filename="C:\Users\Marcus\Documents\Visual Studio 2013\Projects\EverydayTemplatesWP8\Images\IconicMediumLarge.png"
       inkscape:export-xdpi="90.460426"
       inkscape:export-ydpi="90.460426" />
    <path
       style="fill:#ffffff;stroke:#ffffff;stroke-width:0.10428561;stroke-opacity:1"
       d="m 50.236526,933.58226 c -2.538909,0 -5.077817,0.0183 -7.616724,0.0255 -0.56682,0.68282 -0.79758,1.64047 -1.233543,2.43024 -7.825229,16.92193 -15.676169,33.83498 -23.489207,50.76088 -0.197617,2.15327 -0.519393,4.34481 -0.611999,6.47868 0.265723,0.37353 0.783449,-0.19372 1.124014,-0.24462 0.80737,-0.37427 1.614856,-0.76904 2.431566,-1.14439 0.07275,1.38809 0.0062,2.81775 0.226173,4.17655 0.766395,-0.13367 1.461525,-0.68481 2.194835,-0.98803 0.813298,-0.40684 1.615737,-0.83366 2.441719,-1.21505 -0.0068,0.64286 -0.163006,1.29434 -0.09312,1.93172 0.403529,0.23547 0.823133,-0.32867 1.211037,-0.41931 1.007076,-0.55699 2.061217,-1.06272 3.029715,-1.66897 9.386729,-19.94706 18.803145,-39.88233 28.151938,-59.84538 -0.08568,-0.47021 -0.825408,-0.15235 -1.177389,-0.26138 -2.196181,-0.0308 -4.392681,-0.0183 -6.589007,-0.0183 z"
       id="path3786"
       inkscape:connector-curvature="0"
       inkscape:export-filename="C:\Users\Marcus\Documents\Visual Studio 2013\Projects\EverydayTemplatesWP8\Images\IconicMediumLarge.png"
       inkscape:export-xdpi="90.460426"
       inkscape:export-ydpi="90.460426" />
    <path
       style="fill:#ffffff;stroke:#ffffff;stroke-width:0.10428561;stroke-opacity:1"
       d="m 57.543922,901.5105 c -0.489728,0.14044 -0.485616,0.92567 -0.784954,1.30281 -4.730064,10.20957 -9.453276,20.42281 -14.1691,30.63807 0.204212,0.50755 1.15385,0.0925 1.643083,0.22604 4.593316,0 9.186631,0 13.77995,0 0.584353,-0.71237 0.836301,-1.69829 1.291352,-2.51725 3.705573,-7.9157 7.472768,-15.81324 11.111597,-23.75252 -0.16346,-0.46561 -0.895001,-0.47454 -1.263909,-0.76316 -3.850396,-1.73608 -7.715979,-3.53173 -11.608019,-5.12817 z"
       id="path3788"
       inkscape:connector-curvature="0"
       inkscape:export-filename="C:\Users\Marcus\Documents\Visual Studio 2013\Projects\EverydayTemplatesWP8\Images\IconicMediumLarge.png"
       inkscape:export-xdpi="90.460426"
       inkscape:export-ydpi="90.460426" />
    <path
       style="fill:#ffaaaa"
       d="m 64.81397,894.77003 c -1.35028,0.0449 -2.716096,-0.004 -4.057018,0.12634 -0.495437,0.42026 -0.648138,1.12061 -0.969806,1.66657 -0.654277,1.39483 -1.327108,2.78838 -1.951246,4.18811 0.0369,0.36775 0.595563,0.36985 0.860437,0.56546 3.972074,1.78674 7.961042,3.53953 11.95503,5.2802 0.371144,-0.0266 0.365573,-0.54254 0.554886,-0.78689 0.848654,-1.87393 1.719266,-3.74787 2.490816,-5.64806 -0.150031,-0.44739 -0.630027,-0.75086 -0.914067,-1.13316 -1.339399,-1.43385 -2.710155,-2.84258 -4.069595,-4.26093 -0.948594,-0.11078 -1.944413,0.009 -2.911334,-0.0128 -0.329368,0.006 -0.658735,0.009 -0.988103,0.0147 z"
       id="path3013"
       inkscape:connector-curvature="0"
       inkscape:export-filename="C:\Users\Marcus\Documents\Visual Studio 2013\Projects\EverydayTemplatesWP8\Images\IconicMediumLarge.png"
       inkscape:export-xdpi="90.460426"
       inkscape:export-ydpi="90.460426" />
    <path
       style="font-size:medium;font-style:normal;font-variant:normal;font-weight:normal;font-stretch:normal;text-indent:0;text-align:start;text-decoration:none;line-height:normal;letter-spacing:normal;word-spacing:normal;text-transform:none;direction:ltr;block-progression:tb;writing-mode:lr-tb;text-anchor:start;baseline-shift:baseline;color:#000000;fill:#ffffff;fill-opacity:1;stroke:none;stroke-width:1px;marker:none;visibility:visible;display:inline;overflow:visible;enable-background:accumulate;font-family:Sans;-inkscape-font-specification:Sans"
       d="m 134.01364,962.58623 -0.44779,0.0513 c 0,0 -8.91589,0.68186 -19.36079,1.94728 -10.44491,1.26541 -22.400881,3.08508 -28.632899,5.43701 -4.580324,1.72866 -8.343654,5.9096 -12.459393,10.29232 -4.115736,4.3829 -8.565507,8.97819 -14.355955,11.68315 -6.389331,2.98474 -17.16516,5.49671 -26.314866,7.23233 -9.13568,1.73328 -16.650929,2.70288 -16.673987,2.70598 -3.6e-5,0 -0.02634,0 -0.02634,0 l 0.105366,0.8092 c 0,0 0.02624,0 0.02634,0 0,0 0.02631,0 0.02634,0 0.07979,0 7.806746,-0.5783 17.200807,-1.8965 9.442566,-1.32518 20.504586,-3.37755 27.078764,-6.44872 5.975726,-2.79138 10.472316,-7.49727 14.593029,-11.8853 4.120708,-4.38821 7.876381,-8.44463 12.169636,-10.0649 6.027931,-2.27485 17.729746,-4.09946 27.895336,-5.31031 10.16559,-1.21103 18.80762,-1.84621 18.80762,-1.84621 l 0.39512,-0.0256 0,-0.37921 -0.0263,-1.87129 0,-0.43011 z m -0.84292,0.91037 0.0263,1.06218 c -0.35299,0.0256 -8.49145,0.60752 -18.46518,1.79549 -10.18784,1.2136 -21.875791,2.98456 -28.106075,5.33576 -4.580321,1.72848 -8.343653,5.88433 -12.45939,10.26704 -4.115735,4.38291 -8.565507,9.00365 -14.355958,11.70861 -6.371626,2.97632 -17.430938,5.07722 -26.841691,6.39782 -0.930749,0.13 -1.503885,0.1629 -2.39705,0.2783 1.054342,-0.1884 0.915726,-0.1172 2.028275,-0.3289 9.176784,-1.74093 19.969122,-4.22031 26.525595,-7.28305 5.975727,-2.79156 10.472318,-7.49727 14.593029,-11.88548 4.120713,-4.38821 7.876382,-8.44445 12.169637,-10.06472 6.026194,-2.2743 17.998758,-4.12363 28.422158,-5.38648 10.18135,-1.23355 18.46071,-1.86562 18.86031,-1.89657 z"
       id="path3797-1"
       inkscape:connector-curvature="0"
       inkscape:export-filename="C:\Users\Marcus\Documents\Visual Studio 2013\Projects\EverydayTemplatesWP8\Images\IconicMediumLarge.png"
       inkscape:export-xdpi="90.460426"
       inkscape:export-ydpi="90.460426" />
  </g>
</svg>
