<?xml version="1.0" encoding="UTF-8" standalone="no"?>
<!-- Created with Inkscape (http://www.inkscape.org/) -->

<svg
   xmlns:dc="http://purl.org/dc/elements/1.1/"
   xmlns:cc="http://creativecommons.org/ns#"
   xmlns:rdf="http://www.w3.org/1999/02/22-rdf-syntax-ns#"
   xmlns:svg="http://www.w3.org/2000/svg"
   xmlns="http://www.w3.org/2000/svg"
   xmlns:sodipodi="http://sodipodi.sourceforge.net/DTD/sodipodi-0.dtd"
   xmlns:inkscape="http://www.inkscape.org/namespaces/inkscape"
   width="159"
   height="159"
   id="svg2"
   version="1.1"
   inkscape:version="0.48.4 r9939"
   sodipodi:docname="New document 1">
  <defs
     id="defs4" />
  <sodipodi:namedview
     id="base"
     pagecolor="#ffffff"
     bordercolor="#666666"
     borderopacity="1.0"
     inkscape:pageopacity="0.0"
     inkscape:pageshadow="2"
     inkscape:zoom="3.959798"
     inkscape:cx="117.77974"
     inkscape:cy="52.851139"
     inkscape:document-units="px"
     inkscape:current-layer="layer1"
     showgrid="false"
     showguides="true"
     inkscape:guide-bbox="true"
     inkscape:window-width="1536"
     inkscape:window-height="803"
     inkscape:window-x="-8"
     inkscape:window-y="-8"
     inkscape:window-maximized="1"
     inkscape:snap-page="true" />
  <metadata
     id="metadata7">
    <rdf:RDF>
      <cc:Work
         rdf:about="">
        <dc:format>image/svg+xml</dc:format>
        <dc:type
           rdf:resource="http://purl.org/dc/dcmitype/StillImage" />
        <dc:title></dc:title>
      </cc:Work>
    </rdf:RDF>
  </metadata>
  <g
     inkscape:groupmode="layer"
     id="layer2"
     inkscape:label="Background"
     style="display:none"
     sodipodi:insensitive="true">
    <rect
       style="fill:#ffff00"
       id="rect2996"
       width="158.97276"
       height="158.97276"
       x="6.2806407e-008"
       y="0.15351209" />
  </g>
  <g
     inkscape:groupmode="layer"
     id="layer3"
     inkscape:label="Drawing"
     style="display:none"
     sodipodi:insensitive="true" />
  <g
     inkscape:label="Pencil"
     inkscape:groupmode="layer"
     id="layer1"
     transform="translate(0,-893.36218)"
     style="display:inline">
    <rect
       style="fill:#ffff00;stroke:#ffffff;stroke-opacity:1"
       id="rect3836"
       width="159"
       height="159"
       x="0"
       y="0"
       transform="translate(0,893.36218)" />
    <path
       id="path3007"
       transform="translate(0,893.36218)"
       style="fill:none;stroke:#ffffff;stroke-width:1px;stroke-linecap:butt;stroke-linejoin:miter;stroke-opacity:1"
       d="m 68.185297,15.747742 16.225575,7.449875 0,0 M 88.226954,14.504857 81.87511,7.6141191 71.910234,7.7927905 68.176953,15.786094 21.145024,121.61354 c -1.8798,18.42841 -0.03854,0.028 -1.85931,18.45789 16.658186,-9.48627 0.05445,-0.1341 16.643881,-9.43932 L 84.464245,23.208016 z M 20.063135,130.93945 24.642857,128.64286 24.821429,134 l 5.535714,-2.90179 -0.223214,2.94643"
       inkscape:connector-curvature="0" />
    <path
       style="fill:#ffffff;stroke:#ffffff;stroke-width:0.12626907;stroke-opacity:1"
       d="m 59.860674,56.001987 c -3.012044,0.01052 -6.024087,0.02105 -9.03613,0.03157 -0.67245,0.843758 -0.946215,2.027108 -1.46342,3.003102 -9.28349,20.911301 -18.597487,41.811881 -27.866517,62.727841 -0.234443,2.66091 -0.616185,5.36925 -0.726048,8.00624 0.315242,0.46143 0.929449,-0.23936 1.333479,-0.30248 0.957828,-0.46242 1.915789,-0.95019 2.884698,-1.41399 0.0863,1.71537 0.0075,3.48211 0.268321,5.16125 0.909214,-0.16557 1.733887,-0.84645 2.603852,-1.22109 0.964858,-0.50266 1.916837,-1.03021 2.896745,-1.50158 -0.008,0.79448 -0.193369,1.59952 -0.110486,2.38727 0.478729,0.29089 0.976528,-0.40615 1.436718,-0.51811 1.19475,-0.68836 2.445335,-1.3133 3.594315,-2.06251 11.135986,-24.64978 22.307189,-49.284858 33.398169,-73.954216 -0.101654,-0.581058 -0.979227,-0.187379 -1.396801,-0.322853 -2.605446,-0.03752 -5.211275,-0.02321 -7.816895,-0.02044 z"
       id="path3786"
       inkscape:connector-curvature="0"
       transform="translate(0,893.36218)" />
    <path
       style="fill:#ffffff;stroke:#ffffff;stroke-width:0.12626907;stroke-opacity:1"
       d="m 68.529835,16.369283 c -0.580991,0.173658 -0.576114,1.143916 -0.931235,1.609931 -5.611529,12.616502 -11.214931,25.23761 -16.80957,37.860991 0.242269,0.627159 1.368876,0.113456 1.949279,0.279389 5.4493,-0.0024 10.898599,-0.0047 16.347899,-0.0071 0.693251,-0.880479 0.992151,-2.09883 1.532002,-3.11074 4.39612,-9.781837 8.865349,-19.541274 13.18229,-29.352248 -0.19391,-0.575363 -1.061789,-0.58641 -1.499445,-0.943072 -4.567933,-2.145355 -9.153883,-4.364342 -13.77122,-6.337129 z"
       id="path3788"
       inkscape:connector-curvature="0"
       transform="translate(0,893.36218)" />
    <path
       style="fill:#ffaaaa"
       d="m 77.154684,8.0397308 c -1.60191,0.055374 -3.222249,-0.00454 -4.813058,0.15625 -0.587764,0.5193259 -0.76892,1.3848107 -1.150534,2.0594522 -0.776205,1.723668 -1.574419,3.445748 -2.314868,5.175481 0.04376,0.454413 0.706548,0.457045 1.020782,0.698758 4.712285,2.20798 9.444614,4.373982 14.182901,6.525014 0.440306,-0.03302 0.433699,-0.670451 0.65829,-0.972409 1.006805,-2.31572 2.039656,-4.631419 2.954991,-6.9796 -0.17799,-0.552847 -0.747437,-0.927864 -1.084407,-1.400291 -1.589003,-1.771873 -3.215205,-3.5127157 -4.827981,-5.2654453 -1.12537,-0.1369555 -2.306764,0.011476 -3.453872,-0.01475 -0.390748,0.00585 -0.781496,0.011693 -1.172244,0.01754 z"
       id="path3013"
       inkscape:connector-curvature="0"
       transform="translate(0,893.36218)" />
    <path
       style="font-size:medium;font-style:normal;font-variant:normal;font-weight:normal;font-stretch:normal;text-indent:0;text-align:start;text-decoration:none;line-height:normal;letter-spacing:normal;word-spacing:normal;text-transform:none;direction:ltr;block-progression:tb;writing-mode:lr-tb;text-anchor:start;baseline-shift:baseline;color:#000000;fill:#ffffff;fill-opacity:1;stroke:none;stroke-width:1px;marker:none;visibility:visible;display:inline;overflow:visible;enable-background:accumulate;font-family:Sans;-inkscape-font-specification:Sans"
       d="m 159.25,985.20593 -0.53125,0.0625 c 0,0 -10.57739,0.84246 -22.96875,2.40625 -12.39136,1.56379 -26.57537,3.81234 -33.96875,6.71875 -5.433885,2.13611 -9.898529,7.30267 -14.78125,12.71877 -4.882721,5.4161 -10.161725,11.0948 -17.03125,14.4375 -7.580007,3.6884 -20.363957,6.7925 -31.21875,8.9375 -10.838146,2.1416 -19.753896,3.34 -19.78125,3.3437 -4.2e-5,0 -0.03125,0 -0.03125,0 l 0.125,1 c 0,0 0.03113,0 0.03125,0 0,0 0.03121,0 0.03125,0 0.09465,-0.01 9.261566,-0.7146 20.40625,-2.3437 11.202226,-1.6375 24.325699,-4.1737 32.125,-7.9688 7.08933,-3.4496 12.423878,-9.2648 17.3125,-14.6875 4.888622,-5.4226 9.344179,-10.43524 14.4375,-12.43747 7.15126,-2.81122 21.03376,-5.06613 33.09375,-6.5625 12.05999,-1.49637 22.3125,-2.28125 22.3125,-2.28125 l 0.46875,-0.0312 0,-0.46875 -0.0312,-2.3125 0,-0.53125 z m -1,1.125 0.0312,1.3125 c -0.41877,0.0322 -10.07387,0.75062 -21.90625,2.21875 -12.08638,1.49965 -25.95243,3.68816 -33.34375,6.59375 -5.433884,2.13611 -9.898529,7.27137 -14.78125,12.68747 -4.882721,5.4161 -10.161725,11.1261 -17.03125,14.4688 -7.559005,3.6781 -20.679266,6.2743 -31.84375,7.9062 -1.104199,0.1614 -1.78414,0.2004 -2.84375,0.3438 1.25082,-0.2328 1.086376,-0.1455 2.40625,-0.4063 10.886917,-2.1513 23.690451,-5.2151 31.46875,-9 7.08933,-3.4496 12.423877,-9.2648 17.3125,-14.6875 4.888623,-5.4226 9.344178,-10.43524 14.4375,-12.43747 7.1492,-2.81041 21.3529,-5.09568 33.71875,-6.65625 12.07868,-1.52433 21.90094,-2.3054 22.375,-2.34375 z"
       id="path3797-1"
       inkscape:connector-curvature="0" />
  </g>
</svg>
